<?xml version="1.0" encoding="utf-8"?>
<!-- Generator: Adobe Illustrator 14.0.0, SVG Export Plug-In . SVG Version: 6.00 Build 43363)  -->
<!DOCTYPE svg PUBLIC "-//W3C//DTD SVG 1.1//EN" "http://www.w3.org/Graphics/SVG/1.1/DTD/svg11.dtd">
<svg version="1.1"
	 id="citibank" xmlns:dc="http://purl.org/dc/elements/1.1/" xmlns:rdf="http://www.w3.org/1999/02/22-rdf-syntax-ns#" xmlns:cc="http://creativecommons.org/ns#" xmlns:svg="http://www.w3.org/2000/svg"
	 xmlns="http://www.w3.org/2000/svg" xmlns:xlink="http://www.w3.org/1999/xlink" x="0px" y="0px" width="400px" height="300px"
	 viewBox="0 0 400 300" enable-background="new 0 0 400 300" xml:space="preserve">
<path id="path1274" fill="#003B70" d="M71.974,167.829l-0.247,0.237c-3.975,4.051-8.574,6.197-13.314,6.197
	c-9.894,0-17.077-7.425-17.077-17.664c0-10.225,7.184-17.658,17.077-17.658c4.74,0,9.34,2.155,13.314,6.215l0.247,0.245l6.363-7.694
	l-0.17-0.208c-5.292-6.254-11.642-9.298-19.446-9.298c-7.833,0-14.994,2.636-20.154,7.39C32.96,140.74,30,148.001,30,156.6
	c0,8.592,2.96,15.871,8.567,21.02c5.161,4.775,12.321,7.396,20.154,7.396c7.806,0,14.155-3.041,19.446-9.298l0.17-0.192
	L71.974,167.829z"/>
<path id="path1276" fill="#003B70" d="M84.768,183.971h11.24v-54.877h-11.24V183.971L84.768,183.971z"/>
<path id="path1278" fill="#003B70" d="M140.042,172.038c-2.999,1.825-5.791,2.743-8.296,2.743c-3.632,0-5.273-1.916-5.273-6.188
	v-29.116h11.447v-10.334h-11.447v-17.075l-11.019,5.897v11.178h-9.504v10.334h9.504v30.975c0,8.438,4.999,14.205,12.462,14.354
	c5.066,0.1,8.12-1.41,9.977-2.514l0.107-0.081l2.706-10.58L140.042,172.038L140.042,172.038z"/>
<path id="path1280" fill="#003B70" d="M149.353,183.971h11.248v-54.877h-11.248V183.971L149.353,183.971z"/>
<path id="path1282" fill="#003B70" d="M339.887,108.214v52.347l3.502-5.451c-0.003,0.023,15.731-22.761,17.749-25.667h7.013
	c-1.493,2.006-13.864,19.033-13.864,19.033s16.115,33.582,17.046,35.496h-6.887c-0.378-0.783-14.223-30.093-14.223-30.093
	l-10.336,14.481v15.611h-6.415v-72.093C334.033,111.556,338.378,109.066,339.887,108.214L339.887,108.214z M287.184,135.944
	c3.309-4.948,8.494-7.676,14.561-7.676c12.097,0,18.507,7.715,18.507,22.314v33.389h-6.432v-32.007
	c0-12.42-4.313-18.186-13.655-18.186c-8.941,0-14.281,6.802-14.281,18.186v32.007h-6.415v-54.529h6.415v8.457L287.184,135.944z
	 M247.751,128.268c12.448,0,18.498,5.692,18.498,17.406v38.297h-6.415v-7.955l-1.249,1.377c-4.722,5.209-10.142,7.756-16.596,7.756
	c-5.057,0-16.823-1.672-16.823-17.194c0-12.688,10.476-17.193,20.286-17.193c4.927,0,9.793,1.136,13.325,3.114l1.056,0.586v-7.829
	c0-8.679-4.238-13.075-12.614-13.075c-5.164,0-9.826,1.304-14.606,3.999c-0.422-0.969-1.904-4.247-2.316-5.183
	C235.29,129.739,241.459,128.268,247.751,128.268L247.751,128.268z M231.458,167.418c0,8.15,4.224,12.643,11.896,12.643
	c6.531,0,12.331-3.084,16.356-8.694l0.121-0.194v-11.954l-0.355-0.206c-4.097-2.336-8.289-3.277-14.455-3.277
	C236.535,155.734,231.458,160.102,231.458,167.418z M181.916,108.214v29.169l1.242-1.359c4.725-5.219,9.955-7.756,15.968-7.756
	c12.034,0,18.942,10.03,18.942,27.524c0,17.832-7.846,29.356-19.991,29.356c-5.918,0-10.657-2.297-14.914-7.219l-1.248-1.453v7.494
	h-6.402v-72.093C176.057,111.556,180.41,109.065,181.916,108.214z M182.068,142.135l-0.152,0.201v28.385l0.114,0.174
	c3.54,5.479,9.305,8.752,15.441,8.752c9.477,0,14.28-7.987,14.28-23.737c0-14.07-5.321-22.13-14.602-22.13
	C191.526,133.778,186.45,136.588,182.068,142.135"/>
<path id="path1284" fill="#D9261C" d="M167.334,119.357c-10.29-14.575-27.379-23.272-44.766-23.272
	c-17.379,0-34.472,8.696-44.746,23.271l-0.527,0.75h12.957l0.144-0.155c8.818-9.101,20.331-13.915,32.173-13.915
	s23.353,4.813,32.188,13.916l0.146,0.155h12.953L167.334,119.357z"/>
</svg>
