<?xml version="1.0" encoding="utf-8"?>
<!-- Generator: Adobe Illustrator 23.0.3, SVG Export Plug-In . SVG Version: 6.00 Build 0)  -->
<svg version="1.1" id="logosvg.com" xmlns="http://www.w3.org/2000/svg" xmlns:xlink="http://www.w3.org/1999/xlink" x="0px"
	 y="0px" viewBox="0 0 400 300" style="enable-background:new 0 0 400 300;" xml:space="preserve">
<style type="text/css">
	.st0{fill-rule:evenodd;clip-rule:evenodd;fill:#645A53;}
	.st1{fill-rule:evenodd;clip-rule:evenodd;fill:#EA5252;}
</style>
<path id="text" class="st0" d="M361.7071,187.3335h11.0399l19.101-48.4059h-10.9276l-7.8953,24.1084l-8.3178-24.1084h-12.1968
	l14.5232,34.9647L361.7071,187.3335z M306.9123,150.4185v24.8126h-11.1379v-36.3035h7.8258l2.3264,3.1713
	c3.0305-2.5367,6.2731-4.0181,10.0095-4.0181c5.0057,0,8.8116,1.4814,11.138,5.1483c3.3835-3.1036,6.979-5.1483,11.5622-5.1483
	c8.5995,0,13.6051,4.4423,13.6051,16.4966v20.6537h-11.1379v-19.3844c0-5.569-2.2568-7.1912-5.8524-7.1912
	c-2.1142,0-3.8755,0.5633-5.8506,1.8326c0.1426,1.2692,0.2121,2.608,0.2121,4.0894v20.6537h-11.1379v-19.3844
	c0-5.569-2.2568-7.1912-5.922-7.1912C310.5078,148.6555,308.8161,149.1493,306.9123,150.4185L306.9123,150.4185z M268.0667,153.5203
	h14.3111c-0.7755-4.7222-3.3139-6.979-7.1199-6.979C272.0135,146.5413,268.9135,148.4451,268.0667,153.5203L268.0667,153.5203z
	 M276.0333,175.937c-10.7155,0-19.3167-5.2873-19.3167-19.2454c0-13.0418,8.3196-18.6803,17.9066-18.6803
	c11.5604,0,16.7069,8.1057,16.7069,20.8658h-23.3348c0.7772,6.2731,4.6545,8.1075,9.801,8.1075
	c4.9771,0,8.8704-1.2282,11.8831-3.2551l-1.5117,8.8348C285.2924,174.7855,281.8412,175.937,276.0333,175.937L276.0333,175.937z
	 M234.5602,166.5621c2.5367,0,4.4406-0.4243,6.4139-1.9039v-15.7906c-1.7612-1.0589-3.5225-1.5509-6.061-1.5509
	c-5.4281,0-8.5299,3.6651-8.5299,9.7974C226.3832,163.1074,229.5563,166.5621,234.5602,166.5621L234.5602,166.5621z
	 M243.1596,172.5536c-2.8897,2.1855-6.2018,3.5243-10.9258,3.5243c-9.94,0-17.1294-6.1323-17.1294-18.7516
	c0-12.548,8.2483-19.3149,18.8211-19.3149c2.4672,0,4.8649,0.353,7.0486,1.1979v-15.4092h11.1397v51.431h-7.0503L243.1596,172.5536z
	 M167.9107,153.7307v-26.9054h11.5604v26.6951c0,9.5871,4.2997,11.5604,10.2217,11.5604c6.4157,0,9.7279-2.8201,9.7279-11.5604
	v-26.6951h11.6317v26.9054c0,15.862-6.9077,22.488-21.9229,22.488C175.1714,176.2187,167.9107,170.5089,167.9107,153.7307
	L167.9107,153.7307z"/>
<path id="red" class="st1" d="M138.4476,155.7481c-0.4688-0.3761-0.9965-0.6293-1.5705-0.738
	c-3.3906,3.3799-7.5281,6.9398-11.2021,9.3321c-1.6953,1.1266-3.8273,1.69-5.2392,1.69c-3.2498,0-4.6616-3.0982-5.0859-8.0237
	c-0.5651-6.6154-0.9466-14.5392-0.9466-26.786c0-12.5605-2.8504-21.0993-10.4445-21.7696c-0.3209-0.0285-0.6453-0.0481-0.984-0.0481
	c-4.6616,0-6.922,2.3923-9.8883,8.4462c-2.5421,5.2071-6.4977,12.8083-13.8422,27.1657
	c-6.3569,12.3876-13.4197,23.3669-19.495,30.9681c-1.6917,2.1071-3.0287,3.5546-4.2855,4.3782
	c-0.8396,0.5526-1.6454,0.8289-2.4939,0.8289c-2.3977,0-4.1482-2.0233-4.7329-6.7348c-0.139-1.1195-0.2121-2.3905-0.2121-3.822
	c0-9.7118,3.674-25.4775,10.0291-48.7036C62.7156,105.0408,60.7386,93.5,50.5669,93.5c-0.016,0-0.0321,0-0.0481,0
	c-0.0214,0-0.0428,0-0.066,0l-0.0071,0.0018c-2.3032,0.0267-4.2124,0.861-6.0521,2.3085c-1.8112,1.4261-3.6241,4.5065-5.3158,8.6476
	c-1.9074,4.6652-13.5053,27.9286-31.9646,39.9134c-0.2175,4.5564,2.362,9.1111,7.5887,9.6049
	c4.7579,0.451,8.136-1.5545,12.4856-4.4762c-0.3262,1.4529-0.6275,2.8112-0.902,4.0537c-0.3244,1.4671-0.6008,2.7328-0.8218,3.7542
	c-0.3316,1.5206-0.5419,2.4993-0.6043,2.7702c-0.6043,2.772-1.0357,5.405-1.3156,7.9042
	c-2.6027,23.2653,8.1805,34.7455,20.8088,34.7455c2.1106,0,4.2017-0.2514,6.2785-0.779
	c13.9135-3.5278,27.3083-19.4878,43.1631-56.2281c-0.2407,3.9967-0.2656,7.7295-0.0927,11.1932
	c1.0446,21.0566,9.3731,27.3743,21.1404,27.3743c8.8989,0,17.2328-4.6438,21.4701-10.416c3.1089-4.0822,4.3799-8.587,4.3799-12.1059
	C140.6919,159.0353,139.8255,156.8551,138.4476,155.7481"/>
</svg>
